<svg width="1918" height="781" viewBox="0 0 1918 781" fill="none" xmlns="http://www.w3.org/2000/svg">
<path d="M55.4 150L194 286.1H252.9L100.4 138.2L247.9 0H194L55.4 133.2V0H12.5V286.1H55.4V150Z" fill="white"/>
<path d="M788.3 248.1H623.6V0H580.7V286.1H788.3V248.1Z" fill="white"/>
<path d="M1358.2 248.1H1193.5V0H1150.6V286.1H1358.2V248.1Z" fill="white"/>
<path d="M1697.3 150L1835.9 286.1H1894.8L1742.3 138.1L1889.8 0H1841.1H1835.8H1697.2H1661.4H1654.3V286.1H1697.2V150H1697.3ZM1697.3 42.9H1791.3L1697.3 133.3V42.9Z" fill="white"/>
<path d="M1800.6 490.5H1750.2L1631.6 776.6H1676.2L1774 531.7L1870.8 776.6H1917.4L1800.6 490.5Z" fill="white"/>
<path d="M74.2 556.5C83.6 546.8 94.8 539.3 107.9 533.8C121 528.4 135 525.6 150 525.6C166.3 525.6 182.1 529 197.4 535.8C212.7 542.6 225.7 552.3 236.6 564.8L265.2 535.4C251.8 520.1 234.9 508.1 214.3 499.2C193.7 490.3 172.3 485.9 149.9 485.9C128.9 485.9 109.2 489.7 90.8 497.3C72.4 504.9 56.5 515.4 43.2 528.6C29.8 541.8 19.3 557.4 11.5 575.4C3.70002 593.4 -0.0999756 612.7 -0.0999756 633.4C-0.0999756 653.8 3.80002 673.1 11.5 691.2C19.3 709.3 29.8 725 43.2 738.2C56.7 751.6 72.6 762 91 769.6C109.4 777.2 129.1 781 150.1 781C171.9 781 192.9 776.6 213.2 767.7C233.5 758.8 250.6 746.8 264.5 731.5L236.3 703C225.9 715.3 213.3 724.7 198.3 731.4C183.3 738.1 167.6 741.4 151.3 741.4C136 741.4 121.8 738.6 108.6 733C95.4 727.4 84 719.9 74.5 710.3C65 700.8 57.5 689.4 52 676.2C46.5 663 43.8 648.8 43.8 633.5C43.8 618.2 46.5 604 52 590.8C57.4 577.6 64.8 566.2 74.2 556.5Z" fill="white"/>
<path d="M790.1 528.7C776.7 515.5 760.9 505.1 742.7 497.4C724.4 489.8 705 486 684.3 486C663.6 486 644.1 489.8 625.9 497.4C607.6 505 591.9 515.5 578.7 528.7C565.5 541.9 555 557.6 547.2 575.7C539.4 593.8 535.6 613.1 535.6 633.5C535.6 653.9 539.5 673.2 547.2 691.3C555 709.4 565.5 725.1 578.7 738.3C591.9 751.5 607.6 761.9 625.9 769.6C644.2 777.2 663.6 781 684.3 781C705 781 724.5 777.2 742.7 769.6C761 762 776.8 751.6 790.1 738.3C803.4 725.1 814 709.4 821.8 691.3C829.6 673.2 833.4 653.9 833.4 633.5C833.4 613.1 829.5 593.8 821.8 575.7C814 557.6 803.5 541.9 790.1 528.7ZM781.5 676.2C776 689.4 768.6 700.8 759.2 710.3C749.8 719.8 738.6 727.4 725.7 733C712.8 738.6 698.9 741.4 684.2 741.4C669.5 741.4 655.7 738.6 642.9 733C630.1 727.4 619 719.9 609.6 710.3C600.2 700.8 592.8 689.4 587.3 676.2C581.8 663 579.1 648.8 579.1 633.5C579.1 618.2 581.8 604 587.3 590.8C592.7 577.6 600.2 566.1 609.6 556.5C619 546.8 630.1 539.3 642.9 533.8C655.7 528.4 669.5 525.6 684.2 525.6C698.9 525.6 712.7 528.3 725.7 533.8C738.6 539.3 749.8 546.8 759.2 556.5C768.6 566.2 776 577.6 781.5 590.8C786.9 604 789.7 618.3 789.7 633.5C789.7 648.8 787 663 781.5 676.2Z" fill="white"/>
<path d="M1337.2 531.1C1323.7 518.4 1307.8 508.5 1289.4 501.3C1271 494.1 1251 490.5 1229.5 490.5H1128.5V776.6H1229.5C1251 776.6 1271 773 1289.6 765.8C1308.1 758.6 1324.1 748.6 1337.4 736C1350.7 723.3 1361.2 708.3 1368.9 690.8C1376.5 673.4 1380.3 654.4 1380.3 634C1380.3 613.6 1376.5 594.5 1368.9 576.8C1361.2 559 1350.7 543.8 1337.2 531.1ZM1328 675C1322.5 687.7 1315.1 698.7 1305.7 708.1C1296.3 717.5 1285.1 724.9 1272 730.2C1258.9 735.5 1245 738.2 1230.3 738.2H1171.4V528.9H1230.3C1245 528.9 1258.9 531.6 1272 536.9C1285.1 542.2 1296.3 549.6 1305.7 559C1315.1 568.4 1322.5 579.6 1328 592.5C1333.4 605.4 1336.2 619.3 1336.2 634C1336.2 648.6 1333.4 662.3 1328 675Z" fill="white"/>
</svg>
